<svg width="24" height="24" viewBox="0 0 24 24" fill="none" xmlns="http://www.w3.org/2000/svg">
<rect width="24" height="24" rx="4" fill="#001C38"/>
<path d="M7.42688 17C6.65366 17 5.93294 16.8803 5.26472 16.6409C4.60605 16.3923 4.03329 16.0424 3.54645 15.5912C3.0596 15.14 2.67776 14.6105 2.40093 14.0028C2.13364 13.395 2 12.7274 2 12C2 11.2726 2.13364 10.605 2.40093 9.99724C2.67776 9.3895 3.0596 8.86004 3.54645 8.40884C4.04284 7.95764 4.62037 7.61234 5.27904 7.37293C5.93771 7.12431 6.65843 7 7.4412 7C8.30989 7 9.09266 7.14733 9.78951 7.44199C10.4959 7.72744 11.0878 8.15101 11.5651 8.71271L10.0759 10.0387C9.73224 9.66114 9.3504 9.38029 8.93037 9.19613C8.51035 9.00276 8.05215 8.90608 7.55575 8.90608C7.088 8.90608 6.65843 8.97974 6.26705 9.12707C5.87566 9.2744 5.53678 9.48619 5.2504 9.76243C4.96402 10.0387 4.73969 10.3656 4.57741 10.7431C4.42468 11.1206 4.34831 11.5396 4.34831 12C4.34831 12.4604 4.42468 12.8794 4.57741 13.2569C4.73969 13.6344 4.96402 13.9613 5.2504 14.2376C5.53678 14.5138 5.87566 14.7256 6.26705 14.8729C6.65843 15.0203 7.088 15.0939 7.55575 15.0939C8.05215 15.0939 8.51035 15.0018 8.93037 14.8177C9.3504 14.6243 9.73224 14.3343 10.0759 13.9475L11.5651 15.2735C11.0878 15.8352 10.4959 16.2634 9.78951 16.558C9.09266 16.8527 8.30511 17 7.42688 17Z" fill="white"/>
<path d="M17.7616 17C16.9693 17 16.239 16.8803 15.5708 16.6409C14.9121 16.3923 14.3346 16.0424 13.8382 15.5912C13.3514 15.14 12.9695 14.6105 12.6927 14.0028C12.4254 13.395 12.2917 12.7274 12.2917 12C12.2917 11.2726 12.4254 10.605 12.6927 9.99724C12.9695 9.3895 13.3561 8.86004 13.8525 8.40884C14.3489 7.95764 14.9312 7.61234 15.5994 7.37293C16.2676 7.12431 17.0027 7 17.8045 7C18.6923 7 19.4894 7.14273 20.1958 7.42818C20.9118 7.71363 21.5132 8.12799 22 8.67127L20.5108 9.99724C20.1481 9.62891 19.7519 9.35727 19.3224 9.18232C18.8928 8.99816 18.425 8.90608 17.9191 8.90608C17.4323 8.90608 16.9884 8.97974 16.5874 9.12707C16.1865 9.2744 15.8381 9.48619 15.5422 9.76243C15.2558 10.0387 15.0314 10.3656 14.8692 10.7431C14.7164 11.1206 14.6401 11.5396 14.6401 12C14.6401 12.4512 14.7164 12.8656 14.8692 13.2431C15.0314 13.6206 15.2558 13.9521 15.5422 14.2376C15.8381 14.5138 16.1817 14.7256 16.5731 14.8729C16.974 15.0203 17.4132 15.0939 17.8905 15.0939C18.3487 15.0939 18.7926 15.0249 19.2221 14.8867C19.6612 14.7394 20.086 14.4954 20.4965 14.1547L21.8139 15.7707C21.2697 16.1667 20.6349 16.4705 19.9094 16.6823C19.1935 16.8941 18.4775 17 17.7616 17ZM19.6946 15.4807V11.8481H21.8139V15.7707L19.6946 15.4807Z" fill="white"/>
</svg>
